<svg version="1.1" viewBox="0.0 0.0 960.0 540.0" fill="none" stroke="none" stroke-linecap="square" stroke-miterlimit="10" xmlns:xlink="http://www.w3.org/1999/xlink" xmlns="http://www.w3.org/2000/svg"><clipPath id="p.0"><path d="m0 0l960.0 0l0 540.0l-960.0 0l0 -540.0z" clip-rule="nonzero"/></clipPath><g clip-path="url(#p.0)"><path fill="#ffffff" d="m0 0l960.0 0l0 540.0l-960.0 0z" fill-rule="evenodd"/><path fill="#000000" fill-opacity="0.0" d="m9.6692915 89.13123l940.6614 0l0 446.6142l-940.6614 0z" fill-rule="evenodd"/><path fill="#000000" d="m208.52867 67.03831l35.203125 0l53.32811 134.40625l53.875 -134.40625l35.734375 0l-66.140625 161.60938l72.53125 171.18748l137.07816 -335.45312l40.53125 0l-160.53128 378.65625l-33.078125 0l-79.453125 -187.20311l-79.999985 187.20311l-32.546875 0l-159.98438 -378.65625l40.0 0l137.59375 335.45312l71.999985 -171.18748l-66.14061 -161.60938z" fill-rule="nonzero"/></g></svg>